<svg xmlns="http://www.w3.org/2000/svg" xmlns:xlink="http://www.w3.org/1999/xlink" width="186" zoomAndPan="magnify" viewBox="0 0 139.5 92.999996" height="124" preserveAspectRatio="xMidYMid meet" version="1.0"><defs><clipPath id="972900491d"><path d="M 0 0.167969 L 46.253906 0.167969 L 46.253906 46.421875 L 0 46.421875 Z M 0 0.167969 " clip-rule="nonzero"/></clipPath><clipPath id="49fb9bfdad"><path d="M 0 0.167969 L 46.253906 0.167969 L 46.253906 46.421875 L 0 46.421875 Z M 0 0.167969 " clip-rule="nonzero"/></clipPath><clipPath id="c3cf92cd6a"><rect x="0" width="47" y="0" height="47"/></clipPath><clipPath id="3baa5aafb3"><path d="M 46.253906 46.421875 L 92.507812 46.421875 L 92.507812 92.675781 L 46.253906 92.675781 Z M 46.253906 46.421875 " clip-rule="nonzero"/></clipPath><clipPath id="32073d9934"><path d="M 0.253906 0.421875 L 46.507812 0.421875 L 46.507812 46.675781 L 0.253906 46.675781 Z M 0.253906 0.421875 " clip-rule="nonzero"/></clipPath><clipPath id="a6aa11142b"><rect x="0" width="47" y="0" height="47"/></clipPath><clipPath id="ff5e1914f7"><path d="M 92.507812 0.167969 L 138.765625 0.167969 L 138.765625 46.421875 L 92.507812 46.421875 Z M 92.507812 0.167969 " clip-rule="nonzero"/></clipPath><clipPath id="4204f0e88c"><path d="M 0.507812 0.167969 L 46.765625 0.167969 L 46.765625 46.421875 L 0.507812 46.421875 Z M 0.507812 0.167969 " clip-rule="nonzero"/></clipPath><clipPath id="cdd30e6974"><rect x="0" width="47" y="0" height="47"/></clipPath></defs><g clip-path="url(#972900491d)"><g transform="matrix(1, 0, 0, 1, 0, -0.000000000000002554)"><g clip-path="url(#c3cf92cd6a)"><g clip-path="url(#49fb9bfdad)"><path fill="#3871c1" d="M 0 0.167969 L 46.253906 0.167969 L 46.253906 46.421875 L 0 46.421875 Z M 0 0.167969 " fill-opacity="1" fill-rule="nonzero"/></g></g></g></g><g clip-path="url(#3baa5aafb3)"><g transform="matrix(1, 0, 0, 1, 46, 46)"><g clip-path="url(#a6aa11142b)"><g clip-path="url(#32073d9934)"><path fill="#24265d" d="M 0.253906 0.421875 L 46.507812 0.421875 L 46.507812 46.675781 L 0.253906 46.675781 Z M 0.253906 0.421875 " fill-opacity="1" fill-rule="nonzero"/></g></g></g></g><g clip-path="url(#ff5e1914f7)"><g transform="matrix(1, 0, 0, 1, 92, -0.000000000000002554)"><g clip-path="url(#cdd30e6974)"><g clip-path="url(#4204f0e88c)"><path fill="#24265d" d="M 0.507812 0.167969 L 46.765625 0.167969 L 46.765625 46.421875 L 0.507812 46.421875 Z M 0.507812 0.167969 " fill-opacity="1" fill-rule="nonzero"/></g></g></g></g></svg>