<svg xmlns="http://www.w3.org/2000/svg" xmlns:xlink="http://www.w3.org/1999/xlink" width="101" zoomAndPan="magnify" viewBox="0 0 75.75 76.499998" height="102" preserveAspectRatio="xMidYMid meet" version="1.0"><defs><clipPath id="a9670ab19f"><path d="M 15 35 L 68 35 L 68 54 L 15 54 Z M 15 35 " clip-rule="nonzero"/></clipPath><clipPath id="f0de2f3783"><path d="M 67.410156 35.835938 L 67.140625 53.679688 L 14.996094 52.890625 L 15.265625 35.046875 Z M 67.410156 35.835938 " clip-rule="nonzero"/></clipPath><clipPath id="361a6557c8"><path d="M 67.277344 44.757812 C 67.242188 47.125 66.265625 49.378906 64.566406 51.027344 C 62.867188 52.675781 60.585938 53.582031 58.21875 53.546875 L 23.945312 53.027344 C 21.578125 52.992188 19.320312 52.015625 17.671875 50.320312 C 16.023438 48.621094 15.121094 46.335938 15.15625 43.96875 C 15.191406 41.601562 16.164062 39.347656 17.863281 37.699219 C 19.5625 36.050781 21.847656 35.144531 24.214844 35.179688 L 58.488281 35.699219 C 60.855469 35.734375 63.109375 36.710938 64.757812 38.40625 C 66.40625 40.105469 67.3125 42.390625 67.277344 44.757812 Z M 67.277344 44.757812 " clip-rule="nonzero"/></clipPath><clipPath id="a1767af2bd"><path d="M 0 0.0507812 L 52.363281 0.0507812 L 52.363281 18.648438 L 0 18.648438 Z M 0 0.0507812 " clip-rule="nonzero"/></clipPath><clipPath id="a755147d8e"><path d="M 52.410156 0.835938 L 52.140625 18.679688 L -0.00390625 17.890625 L 0.265625 0.046875 Z M 52.410156 0.835938 " clip-rule="nonzero"/></clipPath><clipPath id="67ebc0caa0"><path d="M 52.277344 9.757812 C 52.242188 12.125 51.265625 14.378906 49.566406 16.027344 C 47.867188 17.675781 45.585938 18.582031 43.21875 18.546875 L 8.945312 18.027344 C 6.578125 17.992188 4.320312 17.015625 2.671875 15.320312 C 1.023438 13.621094 0.121094 11.335938 0.15625 8.96875 C 0.191406 6.601562 1.164062 4.347656 2.863281 2.699219 C 4.5625 1.050781 6.847656 0.144531 9.214844 0.179688 L 43.488281 0.699219 C 45.855469 0.734375 48.109375 1.710938 49.757812 3.40625 C 51.40625 5.105469 52.3125 7.390625 52.277344 9.757812 Z M 52.277344 9.757812 " clip-rule="nonzero"/></clipPath><clipPath id="c6eb81e19b"><rect x="0" width="53" y="0" height="19"/></clipPath><clipPath id="3d3a3cf2a7"><path d="M 31 4 L 50 4 L 50 24 L 31 24 Z M 31 4 " clip-rule="nonzero"/></clipPath><clipPath id="9d9b72509d"><path d="M 44.21875 1.609375 L 53.304688 17.59375 L 37.320312 26.679688 L 28.234375 10.695312 Z M 44.21875 1.609375 " clip-rule="nonzero"/></clipPath><clipPath id="4674a7c2d8"><path d="M 48.761719 9.601562 C 46.253906 5.1875 40.640625 3.640625 36.226562 6.152344 C 31.8125 8.660156 30.269531 14.273438 32.777344 18.6875 C 35.285156 23.101562 40.898438 24.644531 45.3125 22.136719 C 49.726562 19.628906 51.273438 14.015625 48.761719 9.601562 Z M 48.761719 9.601562 " clip-rule="nonzero"/></clipPath><clipPath id="031c98b1d5"><path d="M 0 0 L 19 0 L 19 20 L 0 20 Z M 0 0 " clip-rule="nonzero"/></clipPath><clipPath id="e182d58606"><path d="M 13.21875 -2.390625 L 22.304688 13.59375 L 6.320312 22.679688 L -2.765625 6.695312 Z M 13.21875 -2.390625 " clip-rule="nonzero"/></clipPath><clipPath id="fd87647ba9"><path d="M 17.761719 5.601562 C 15.253906 1.1875 9.640625 -0.359375 5.226562 2.152344 C 0.8125 4.660156 -0.730469 10.273438 1.777344 14.6875 C 4.285156 19.101562 9.898438 20.644531 14.3125 18.136719 C 18.726562 15.628906 20.273438 10.015625 17.761719 5.601562 Z M 17.761719 5.601562 " clip-rule="nonzero"/></clipPath><clipPath id="d136da6c68"><rect x="0" width="19" y="0" height="20"/></clipPath></defs><g clip-path="url(#a9670ab19f)"><g clip-path="url(#f0de2f3783)"><g clip-path="url(#361a6557c8)"><g transform="matrix(1, 0, 0, 1, 15, 35)"><g clip-path="url(#c6eb81e19b)"><g clip-path="url(#a1767af2bd)"><g clip-path="url(#a755147d8e)"><g clip-path="url(#67ebc0caa0)"><path fill="#1b17ff" d="M 52.410156 0.835938 L 52.140625 18.679688 L -0.00390625 17.890625 L 0.265625 0.046875 Z M 52.410156 0.835938 " fill-opacity="1" fill-rule="nonzero"/></g></g></g></g></g></g></g></g><g clip-path="url(#3d3a3cf2a7)"><g clip-path="url(#9d9b72509d)"><g clip-path="url(#4674a7c2d8)"><g transform="matrix(1, 0, 0, 1, 31, 4)"><g clip-path="url(#d136da6c68)"><g clip-path="url(#031c98b1d5)"><g clip-path="url(#e182d58606)"><g clip-path="url(#fd87647ba9)"><path fill="#1b17ff" d="M 13.21875 -2.390625 L 22.304688 13.59375 L 6.320312 22.679688 L -2.765625 6.695312 Z M 13.21875 -2.390625 " fill-opacity="1" fill-rule="nonzero"/></g></g></g></g></g></g></g></g></svg>